<svg width="17" height="16" viewBox="0 0 17 16" fill="none" xmlns="http://www.w3.org/2000/svg">
<path fill-rule="evenodd" clip-rule="evenodd" d="M3.50002 2C3.31593 2 3.16669 2.14924 3.16669 2.33333V13.6667C3.16669 13.8508 3.31593 14 3.50002 14H10.8334C11.0174 14 11.1667 13.8508 11.1667 13.6667V12.3333C11.1667 11.781 11.6144 11.3333 12.1667 11.3333C12.719 11.3333 13.1667 11.781 13.1667 12.3333V13.6667C13.1667 14.9553 12.122 16 10.8334 16H3.50002C2.21136 16 1.16669 14.9553 1.16669 13.6667V2.33333C1.16669 1.04467 2.21136 0 3.50002 0H6.94774C7.56657 0 8.16007 0.245833 8.59765 0.683418L8.87379 0.95956C9.26432 1.35008 9.26432 1.98325 8.87379 2.37377C8.48327 2.7643 7.8501 2.7643 7.45958 2.37377L7.18344 2.09763C7.12093 2.03512 7.03614 2 6.94774 2H3.50002ZM13.2071 0.95956C13.5977 1.35008 13.5977 1.98325 13.2071 2.37377L10.7353 4.84562C11.484 5.3661 12.1339 6.016 12.6544 6.76474L14.1262 5.29289C14.5168 4.90237 15.1499 4.90237 15.5405 5.29289C15.931 5.68342 15.931 6.31658 15.5405 6.70711L12.571 9.67657C12.4308 9.81677 12.2572 9.91892 12.0665 9.97339L7.72987 11.2124C6.84979 11.4639 6.03613 10.6502 6.28758 9.77016L7.52663 5.43347C7.5811 5.24283 7.68325 5.06922 7.82345 4.92902L11.7929 0.95956C12.1834 0.569036 12.8166 0.569036 13.2071 0.95956ZM11.1747 8.14816L11.0742 7.99743C10.6592 7.37494 10.1251 6.84078 9.50259 6.42578L9.35186 6.3253L8.62271 8.87731L11.1747 8.14816Z" fill="black"/>
</svg>
